<?xml version="1.0" encoding="UTF-8"?><svg xmlns="http://www.w3.org/2000/svg" viewBox="0 0 110 110"><defs><style>.d{fill:#fff;}</style></defs><g id="a"/><g id="b"><g id="c"><g><g><rect width="110" height="110"/><g><rect x="70.54" y="52.05" width="18.67" height="8.49"/><rect x="46.77" y="77.52" width="18.67" height="8.49" transform="translate(137.87 25.65) rotate(90)"/></g></g><path class="d" d="M55.19,55l13.06,13.06c-3.35,3.35-7.97,5.42-13.06,5.42-10.19,0-18.48-8.29-18.48-18.48s8.29-18.48,18.48-18.48c4.94,0,9.58,1.92,13.07,5.41l8.5-8.5c-5.76-5.76-13.42-8.93-21.57-8.93-16.82,0-30.5,13.68-30.5,30.5s13.68,30.5,30.5,30.5,30.5-13.81,30.5-30.5h-30.5Z"/></g></g></g></svg>