<?xml version="1.0" encoding="UTF-8"?><svg xmlns="http://www.w3.org/2000/svg" viewBox="0 0 666.81 110"><defs><style>.d{fill:#fff;}.e{letter-spacing:.04em;}.f{letter-spacing:.07em;}.g,.h{font-family:Montserrat-Bold, Montserrat;font-size:80px;}.i{letter-spacing:.06em;}.h{fill:#231f20;}</style></defs><g id="a"/><g id="b"><g id="c"><g><g><rect width="110" height="110"/><g><rect x="70.54" y="52.05" width="18.67" height="8.49"/><rect x="46.77" y="77.52" width="18.67" height="8.49" transform="translate(137.87 25.65) rotate(90)"/></g></g><path class="d" d="M55.19,55l13.06,13.06c-3.35,3.35-7.97,5.42-13.06,5.42-10.19,0-18.48-8.29-18.48-18.48s8.29-18.48,18.48-18.48c4.94,0,9.58,1.92,13.07,5.41l8.5-8.5c-5.76-5.76-13.42-8.93-21.57-8.93-16.82,0-30.5,13.68-30.5,30.5s13.68,30.5,30.5,30.5,30.5-13.81,30.5-30.5h-30.5Z"/></g><g><g><text class="g" transform="translate(167.54 82.89)"><tspan class="f" x="0" y="0" xml:space="preserve">  </tspan><tspan class="f" x="57.28" y="0">R</tspan><tspan class="e" x="122.08" y="0">A</tspan><tspan class="i" x="186.32" y="0">V</tspan><tspan class="f" x="250.8" y="0">IS OS</tspan></text><text class="h" transform="translate(167.54 82.89)"><tspan class="f" x="0" y="0" xml:space="preserve">  R</tspan><tspan class="e" x="122.08" y="0">A</tspan><tspan class="i" x="186.32" y="0">V</tspan><tspan class="f" x="250.8" y="0">IS OS</tspan></text></g><path d="M189.1,55l12.2,12.2c-3.13,3.13-7.44,5.06-12.2,5.06-9.52,0-17.27-7.75-17.27-17.27s7.75-17.27,17.27-17.27c4.61,0,8.95,1.8,12.21,5.06l7.94-7.94c-5.38-5.38-12.54-8.35-20.15-8.35-15.71,0-28.5,12.78-28.5,28.5s12.78,28.5,28.5,28.5,28.5-12.9,28.5-28.49h-28.5Z"/></g></g></g></svg>