<svg width="60" height="37" viewBox="0 0 60 37" fill="none" xmlns="http://www.w3.org/2000/svg">
<path d="M37.7445 3.92737H21.6777V32.7966H37.7445V3.92737Z" fill="#878685"/>
<path d="M22.6975 18.362C22.6975 12.4964 25.4518 7.29381 29.6853 3.92744C26.5739 1.47917 22.6465 0 18.362 0C8.21191 0 0 8.21191 0 18.362C0 28.5121 8.21191 36.7241 18.362 36.7241C22.6465 36.7241 26.5739 35.2449 29.6853 32.7966C25.4518 29.4813 22.6975 24.2277 22.6975 18.362Z" fill="#515050"/>
<path d="M59.4211 18.362C59.4211 28.5121 51.2092 36.7241 41.0591 36.7241C36.7746 36.7241 32.8472 35.2449 29.7358 32.7966C34.0203 29.4303 36.7236 24.2277 36.7236 18.362C36.7236 12.4964 33.9693 7.29381 29.7358 3.92744C32.8472 1.47917 36.7746 0 41.0591 0C51.2092 0 59.4211 8.26291 59.4211 18.362Z" fill="#878685"/>
</svg>
