<svg viewBox="0 0 122 45" fill="none" xmlns="http://www.w3.org/2000/svg"><path d="M60.5529 24.6272H55.2256C55.1849 24.6272 55.1443 24.6069 55.1239 24.5865C55.1036 24.5459 55.0833 24.5255 55.1036 24.4849L57.7673 15.3145C57.7876 15.2535 57.8486 15.2129 57.9096 15.2332C57.9503 15.2535 57.9909 15.2739 57.9909 15.3145L60.6546 24.4849C60.6749 24.5255 60.6546 24.5662 60.6343 24.5865C60.6343 24.6069 60.5936 24.6272 60.5529 24.6272ZM63.0336 32.5775H66.4903L61.2239 14.3995C60.6749 12.5695 58.7433 11.5122 56.9133 12.0612C55.7949 12.3865 54.9206 13.2812 54.5749 14.3995L49.3086 32.5775H52.7653L54.2903 27.3112C54.3106 27.2502 54.3513 27.2299 54.4123 27.2299H61.3866C61.4476 27.2299 61.4883 27.2705 61.5086 27.3112L63.0336 32.5775V32.5775ZM82.5129 22.1465H84.5463C84.6073 22.1465 84.6683 22.2075 84.6683 22.2685V29.4462C84.6886 31.3372 86.2339 32.8622 88.1249 32.8622C88.8163 32.8622 89.5076 32.7605 90.1583 32.5775V30.2189C89.7719 30.2595 89.3449 30.2799 89.0196 30.2799C88.4503 30.2799 88.0029 29.8325 88.0029 29.2632V22.2889C88.0029 22.2279 88.0639 22.1669 88.1249 22.1669H90.1583V19.5439H88.1249C88.0639 19.5439 88.0029 19.4829 88.0029 19.4219V15.1112H84.6479V19.4219C84.6479 19.4829 84.5869 19.5439 84.5259 19.5439H82.4926L82.5129 22.1465V22.1465ZM101.748 32.5775H105.083V23.5699C105.063 21.1909 103.111 19.2592 100.732 19.2795C99.3489 19.2999 98.0069 19.7269 96.8683 20.4792C96.8276 20.4995 96.7869 20.4995 96.7463 20.4792C96.7056 20.4589 96.6853 20.4182 96.6853 20.3775V12.1832H93.3506V32.5775H96.6853V22.8379C96.6853 22.7972 96.7056 22.7565 96.7463 22.7362C97.3766 22.4109 98.6169 21.8822 99.8369 21.8822C100.345 21.8822 100.833 22.0855 101.199 22.4312C101.565 22.7769 101.769 23.2649 101.769 23.7529L101.748 32.5775V32.5775ZM68.3609 19.5439V28.5515C68.3813 30.9509 70.3333 32.8622 72.7123 32.8622C74.2576 32.8419 75.7419 32.3132 76.9619 31.3982C77.0026 31.3779 77.0433 31.3575 77.0839 31.3779C77.1246 31.3982 77.1449 31.4185 77.1653 31.4592L77.5109 32.5979H80.1136V19.5439H76.7789V29.2835C76.7789 29.3242 76.7586 29.3649 76.7179 29.3852C76.0876 29.7105 74.8473 30.2392 73.6273 30.2392C72.5699 30.2392 71.7159 29.4055 71.7159 28.3482V19.5439H68.3609V19.5439ZM114.802 30.2595C113.786 30.2595 112.972 29.6902 112.322 28.5109C111.549 27.0875 111.122 24.9119 111.122 22.3905C111.122 19.8692 111.549 17.6935 112.322 16.2702C112.972 15.0909 113.765 14.5215 114.802 14.5215C115.839 14.5215 116.632 15.0909 117.283 16.2702C118.056 17.6935 118.483 19.8692 118.483 22.3905C118.483 24.9119 118.056 27.0875 117.283 28.5109C116.632 29.6902 115.839 30.2595 114.802 30.2595ZM114.802 11.9189C112.667 11.9189 110.837 12.9152 109.556 14.8062C108.275 16.6972 107.604 19.2999 107.604 22.3905C107.604 25.4812 108.275 28.0839 109.556 29.9749C110.837 31.8659 112.647 32.8622 114.802 32.8622C116.958 32.8622 118.767 31.8659 120.048 29.9749C121.329 28.0839 122 25.4812 122 22.3905C122 19.2999 121.329 16.6972 120.048 14.8062C118.767 12.9152 116.958 11.9189 114.802 11.9189Z" fill="currentColor"></path><path d="M38.43 13.9731L33.9973 0.370117H19.6826L24.1153 13.9731H38.43ZM19.6826 0.370117H5.38829L0.97596 13.9731H15.2906L19.6826 0.370117ZM0.97596 13.9731C-1.66737 22.0861 1.21996 30.9718 8.13329 35.9941L12.5456 22.3911L0.97596 13.9731V13.9731ZM38.43 13.9731L26.84 22.3911L31.2523 35.9941C38.1656 30.9921 41.053 22.0861 38.43 13.9731V13.9731ZM8.11296 35.9941L19.6826 44.4121L31.2523 35.9941L19.6826 27.5761L8.11296 35.9941V35.9941Z" fill="currentColor"></path></svg>
