<svg width="162" height="45" viewBox="0 0 162 45" fill="none" xmlns="http://www.w3.org/2000/svg">
<path d="M58.1917 32.8983V24.4663H50.7754V32.8983H47V12.9049H50.7754V21.1287H58.1917V12.9049H61.9671V32.8983H58.1917ZM75.8079 32.8983H72.8117L72.5397 31.9095C71.244 32.7522 69.7318 33.201 68.1863 33.2015C65.513 33.2015 64.3726 31.3697 64.3726 28.8481C64.3726 25.8759 65.6646 24.7369 68.6226 24.7369H72.1359V23.2041C72.1359 21.5848 71.6868 21.0139 69.3451 21.0139C67.9834 21.0235 66.6261 21.1692 65.2934 21.4488L64.8443 18.658C66.4778 18.2047 68.1636 17.9737 69.8593 17.9667C74.4493 17.9667 75.8023 19.5859 75.8023 23.2508L75.8079 32.8983ZM72.1458 27.3733H69.4457C68.2443 27.3733 67.9157 27.702 67.9157 28.8155C67.9157 29.8355 68.2443 30.2888 69.389 30.2888C70.3578 30.2736 71.3071 30.0139 72.1487 29.5337L72.1458 27.3733ZM82.8955 33.1817C81.1821 33.1513 79.4826 32.8677 77.8522 32.3402L78.3622 29.5493C79.7783 29.9545 81.2427 30.1665 82.7156 30.1798C84.3348 30.1798 84.5771 29.8015 84.5771 28.7064C84.5771 27.8083 84.3958 27.3549 82.0243 26.784C78.4543 25.9113 78.0335 25.0132 78.0335 22.194C78.0335 19.253 79.3255 17.961 83.4976 17.961C84.9738 17.9624 86.4443 18.1338 87.8808 18.471L87.5167 21.395C86.1896 21.1499 84.8453 21.0097 83.4962 20.9757C81.9067 20.9757 81.6347 21.3539 81.6347 22.2507C81.6347 23.4208 81.7253 23.5257 83.7073 24.0215C87.8156 25.1052 88.1924 25.645 88.1924 28.6313C88.1924 31.4675 87.3197 33.2072 82.9082 33.2072L82.8955 33.1817ZM99.0738 32.8983V22.704C99.0738 21.922 98.7452 21.5338 97.9037 21.5338C97.0055 21.5338 95.4103 22.0722 94.09 22.7663V32.9012H90.4279V12.317L94.09 11.807V19.4003C95.7475 18.5503 97.5708 18.0687 99.4308 17.9879C101.862 17.9879 102.732 19.6978 102.732 22.3116V32.9082L99.0738 32.8983ZM105.449 16.21V11.9883H109.111V16.2213L105.449 16.21ZM105.449 32.8983V18.3067H109.111V32.9267L105.449 32.8983ZM111.664 18.3987C111.664 14.7367 113.793 12.6074 118.775 12.6074C120.606 12.6071 122.431 12.8288 124.208 13.2676L123.783 16.55C122.164 16.243 120.522 16.0724 118.875 16.04C116.262 16.04 115.424 16.9424 115.424 19.0603V26.7443C115.424 28.8736 116.265 29.7647 118.875 29.7647C120.522 29.7322 122.164 29.5616 123.783 29.2547L124.203 32.513C122.425 32.938 120.6 33.1732 118.77 33.1732C113.786 33.1732 111.658 31.0439 111.658 27.3818L111.664 18.3987ZM131.724 33.1958C126.709 33.1958 125.349 30.4362 125.349 27.4343V23.741C125.349 20.7377 126.7 17.9794 131.724 17.9794C136.747 17.9794 138.099 20.7391 138.099 23.741V27.4343C138.087 30.4376 136.739 33.1958 131.724 33.1958ZM131.724 21.1117C129.772 21.1117 129.024 21.9843 129.024 23.6333V27.5533C129.024 29.2037 129.779 30.0749 131.724 30.0749C133.669 30.0749 134.424 29.2023 134.424 27.5533V23.6333C134.417 21.9829 133.665 21.1117 131.724 21.1117ZM147.803 21.3383C146.457 21.9475 145.164 22.6601 143.928 23.4676V32.9068H140.266V18.2783H143.359L143.6 19.8976C144.79 19.0902 146.083 18.4438 147.443 17.9752L147.803 21.3383ZM161.691 28.0321C161.691 31.2904 160.248 33.193 156.857 33.193C155.545 33.1788 154.236 33.0513 152.952 32.768V38.8087L149.29 39.3187V18.2783H152.202L152.58 19.5108C153.914 18.5145 155.536 17.9782 157.201 17.9823C160.142 17.9823 161.702 19.7247 161.702 23.0567L161.691 28.0321ZM152.957 29.6825C154.023 29.9167 155.11 30.0434 156.201 30.0608C157.523 30.0608 158.033 29.4303 158.033 28.1086V22.925C158.033 21.7237 157.584 21.0635 156.234 21.0635C155.021 21.1055 153.862 21.5735 152.961 22.3853L152.957 29.6825ZM17.6651 0.492084L0.325089 10.4937V34.5162L6.84175 38.2774V14.2437L17.6651 7.99192V0.492084ZM24.5685 0.477917V19.61H17.6495V12.47L11.1328 16.2313V40.7438L17.6495 44.5122V25.4353H24.5685V32.5257L31.0852 28.7687V4.225L24.5685 0.477917ZM24.5685 44.5221L41.9085 34.5204V10.4937L35.3918 6.7325V30.7592L24.5685 37.0109" fill="black"/>
</svg>
