<svg width="190" height="29" viewBox="0 0 190 29" fill="none" xmlns="http://www.w3.org/2000/svg">
<path d="M188.806 22.5437C188.603 22.5437 188.405 22.6037 188.237 22.7162C188.069 22.8287 187.938 22.9886 187.86 23.1756C187.783 23.3627 187.762 23.5685 187.802 23.7671C187.841 23.9657 187.939 24.1481 188.082 24.2912C188.225 24.4344 188.408 24.5319 188.606 24.5714C188.805 24.6109 189.011 24.5906 189.198 24.5132C189.385 24.4357 189.545 24.3045 189.657 24.1361C189.77 23.9678 189.83 23.7698 189.83 23.5674C189.83 23.2959 189.722 23.0355 189.53 22.8435C189.338 22.6515 189.077 22.5437 188.806 22.5437ZM188.806 24.4306C188.635 24.4306 188.468 24.3799 188.326 24.2851C188.184 24.1902 188.074 24.0554 188.008 23.8976C187.943 23.7399 187.926 23.5663 187.959 23.3988C187.993 23.2314 188.075 23.0776 188.196 22.9569C188.316 22.8362 188.47 22.754 188.638 22.7207C188.805 22.6875 188.979 22.7046 189.136 22.77C189.294 22.8354 189.429 22.9461 189.524 23.0881C189.619 23.2301 189.669 23.3971 189.669 23.5678C189.669 23.7966 189.578 24.016 189.416 24.1778C189.254 24.3395 189.035 24.4305 188.806 24.4306V24.4306ZM189.138 23.3934C189.138 23.207 189.005 23.0965 188.811 23.0965H188.483V24.0289H188.645V23.6906H188.819L188.988 24.0289H189.161L188.978 23.6558C189.028 23.6336 189.071 23.5965 189.099 23.5496C189.128 23.5027 189.142 23.4482 189.138 23.3934V23.3934ZM188.804 23.5481H188.646V23.239H188.804C188.912 23.239 188.977 23.2934 188.977 23.3934C188.977 23.4933 188.912 23.5494 188.804 23.5494V23.5481ZM15.285 16.7647C15.285 17.558 15.0499 18.3335 14.6092 18.9932C14.1685 19.6528 13.5421 20.167 12.8092 20.4706C12.0763 20.7742 11.2698 20.8537 10.4918 20.6989C9.7137 20.5442 8.999 20.1622 8.43805 19.6012C7.8771 19.0403 7.4951 18.3256 7.34035 17.5475C7.18561 16.7695 7.26507 15.963 7.56869 15.2301C7.87231 14.4972 8.38646 13.8708 9.0461 13.4301C9.70574 12.9894 10.4812 12.7542 11.2745 12.7543C12.3382 12.7543 13.3582 13.1768 14.1103 13.9289C14.8624 14.681 15.285 15.7011 15.285 16.7647ZM37.8955 16.7647C37.8956 17.558 37.6604 18.3335 37.2197 18.9931C36.7791 19.6528 36.1527 20.1669 35.4198 20.4706C34.6869 20.7742 33.8805 20.8537 33.1024 20.699C32.3244 20.5442 31.6097 20.1623 31.0487 19.6014C30.4877 19.0405 30.1057 18.3258 29.9509 17.5478C29.7961 16.7697 29.8755 15.9633 30.1791 15.2304C30.4826 14.4975 30.9967 13.871 31.6563 13.4303C32.3159 12.9896 33.0914 12.7543 33.8847 12.7543C34.9483 12.7543 35.9684 13.1768 36.7206 13.9289C37.4728 14.681 37.8954 15.7011 37.8955 16.7647V16.7647ZM36.9803 4.43047C32.8802 1.63292 27.9309 -7.29968e-05 22.5798 -7.29968e-05C17.4512 -0.0101587 12.44 1.53461 8.20715 4.43047H0L3.69226 8.44826C2.53113 9.50479 1.60383 10.7925 0.969934 12.2287C0.336037 13.6649 0.00955686 15.2178 0.0114653 16.7877C0.0114653 23.0195 5.06359 28.0716 11.2954 28.0716C14.1398 28.0754 16.8798 27.0008 18.9633 25.0644L22.5806 29.0003L26.1971 25.0644C28.2805 26.9999 31.0201 28.0739 33.8638 28.07C40.0956 28.07 45.1522 23.0179 45.1522 16.786C45.1541 15.2162 44.8277 13.6633 44.1938 12.2271C43.5599 10.7909 42.6326 9.50315 41.4715 8.44662L45.1637 4.42883L36.9803 4.43047ZM11.2954 24.424C7.07781 24.424 3.65909 21.0053 3.65909 16.7877C3.65909 12.5701 7.07822 9.15133 11.2954 9.15133C15.5126 9.15133 18.9322 12.5701 18.9322 16.7877C18.9322 21.0053 15.513 24.424 11.2954 24.424ZM22.5819 16.5678C22.5819 11.5423 18.9269 7.2317 14.1057 5.3866C16.791 4.2678 19.6713 3.69179 22.5804 3.69179C25.4895 3.69179 28.3698 4.2678 31.0552 5.3866C26.2364 7.23129 22.5819 11.5427 22.5819 16.5678ZM41.4997 16.7877C41.4997 21.0053 38.0806 24.424 33.8634 24.424C29.6462 24.424 26.2266 21.0053 26.2266 16.7877C26.2266 12.5701 29.6457 9.15133 33.8634 9.15133C38.081 9.15133 41.5001 12.5701 41.5001 16.7877H41.4997ZM68.284 9.68529H70.0599V13.2002H67.9818C66.3812 13.2002 65.3542 13.9856 65.3542 15.5867V24.424H61.5551V9.68529H65.3542V12.1618C65.6867 10.4101 66.8951 9.68529 68.2844 9.68529H68.284ZM75.9146 6.18057C75.9146 6.78939 75.6728 7.37326 75.2423 7.80376C74.8118 8.23425 74.2279 8.4761 73.6191 8.4761C73.0103 8.4761 72.4264 8.23425 71.9959 7.80376C71.5654 7.37326 71.3236 6.78939 71.3236 6.18057C71.3236 4.88171 72.3202 3.85474 73.6191 3.85474C74.918 3.85474 75.915 4.88171 75.915 6.18057H75.9146ZM71.7244 9.68529H75.5121V24.424H71.7232L71.7244 9.68529ZM85.9477 9.43633C84.3329 9.42853 82.7607 9.95422 81.4753 10.9317V9.68529H77.6869V28.7497H81.4753V23.1776C82.7607 24.1551 84.3329 24.6808 85.9477 24.673C90.1554 24.673 93.5639 21.262 93.5639 17.0546C93.5639 12.8473 90.1558 9.43633 85.9481 9.43633H85.9477ZM85.6139 21.1932C84.7954 21.1932 83.9952 20.9505 83.3146 20.4958C82.6341 20.041 82.1036 19.3946 81.7904 18.6384C81.4771 17.8822 81.3952 17.0501 81.5549 16.2473C81.7145 15.4444 82.1087 14.707 82.6875 14.1282C83.2663 13.5494 84.0037 13.1553 84.8065 12.9956C85.6093 12.8359 86.4415 12.9179 87.1977 13.2311C87.9539 13.5443 88.6003 14.0748 89.055 14.7554C89.5098 15.436 89.7525 16.2361 89.7525 17.0546C89.7525 18.1522 89.3165 19.2048 88.5405 19.9809C87.7644 20.757 86.7119 21.1931 85.6143 21.1932H85.6139ZM163.028 19.7683C163.028 22.61 160.59 24.673 157.231 24.673C153.746 24.673 151.312 22.5613 151.312 19.5373V19.4554H155.019V19.5373C155.019 20.7993 155.92 21.6473 157.262 21.6473C158.549 21.6473 159.413 21.0196 159.413 20.0856C159.413 19.2007 158.815 18.7061 157.207 18.261L155.089 17.6836C152.864 17.0813 151.588 15.6313 151.588 13.7059C151.588 11.2319 153.922 9.43633 157.139 9.43633C160.387 9.43633 162.568 11.2331 162.568 13.9082V13.9922H159.075V13.9082C159.075 13 158.225 12.2887 157.139 12.2887C155.999 12.2887 155.203 12.8121 155.203 13.5618C155.203 14.33 155.77 14.7763 157.225 15.1551L159.436 15.7615C162.405 16.5539 163.029 18.3777 163.029 19.7683H163.028ZM107.012 10.9317C105.726 9.95379 104.153 9.42808 102.538 9.43633C98.3298 9.43633 94.9193 12.8473 94.9193 17.0546C94.9193 21.262 98.3306 24.673 102.538 24.673C104.152 24.6808 105.725 24.1551 107.01 23.1776V24.424H110.798V9.68529H107.01L107.012 10.9317ZM107.012 17.0551C107.012 17.8736 106.769 18.6737 106.314 19.3542C105.859 20.0348 105.213 20.5651 104.457 20.8783C103.701 21.1915 102.869 21.2734 102.066 21.1137C101.263 20.9539 100.526 20.5597 99.9468 19.9809C99.3681 19.4021 98.974 18.6647 98.8143 17.8619C98.6546 17.0591 98.7366 16.227 99.0499 15.4708C99.3631 14.7146 99.8936 14.0682 100.574 13.6135C101.255 13.1588 102.055 12.9161 102.873 12.9161C103.971 12.9165 105.023 13.3528 105.799 14.1289C106.575 14.9051 107.011 15.9576 107.011 17.0551H107.012ZM124.486 10.9317C123.2 9.95422 121.628 9.42853 120.013 9.43633C115.806 9.43633 112.395 12.8473 112.395 17.0546C112.395 21.262 115.806 24.673 120.013 24.673C121.628 24.6808 123.2 24.1551 124.486 23.1776V24.424H128.274V4.43907H124.486V10.9317ZM120.347 21.1932C119.529 21.1933 118.729 20.9507 118.048 20.496C117.367 20.0413 116.837 19.3949 116.524 18.6387C116.21 17.8825 116.128 17.0503 116.288 16.2475C116.448 15.4447 116.842 14.7072 117.42 14.1284C117.999 13.5495 118.737 13.1553 119.539 12.9956C120.342 12.8359 121.174 12.9178 121.931 13.2311C122.687 13.5443 123.333 14.0747 123.788 14.7553C124.243 15.4359 124.486 16.2361 124.486 17.0546C124.486 17.5983 124.379 18.1366 124.17 18.6388C123.962 19.141 123.657 19.5973 123.273 19.9816C122.888 20.366 122.432 20.6708 121.93 20.8787C121.427 21.0866 120.889 21.1934 120.345 21.1932H120.347ZM145.872 9.68693H149.661V24.424H145.872V9.68693ZM150.062 6.18221C150.062 6.79102 149.82 7.3749 149.39 7.8054C148.959 8.23589 148.375 8.47774 147.766 8.47774C147.158 8.47774 146.574 8.23589 146.143 7.8054C145.713 7.3749 145.471 6.79102 145.471 6.18221C145.471 4.88335 146.468 3.85638 147.766 3.85638C149.065 3.85638 150.06 4.88171 150.06 6.18057L150.062 6.18221ZM171.793 9.43797C167.586 9.43797 164.175 12.8489 164.175 17.0563C164.175 21.2637 167.586 24.6746 171.793 24.6746C176.001 24.6746 179.41 21.2637 179.41 17.0563C179.41 12.8489 175.998 9.43633 171.791 9.43633L171.793 9.43797ZM171.793 21.1949C170.975 21.1949 170.175 20.9521 169.494 20.4974C168.813 20.0426 168.283 19.3963 167.97 18.6401C167.657 17.8838 167.575 17.0517 167.734 16.2489C167.894 15.4461 168.288 14.7087 168.867 14.1299C169.446 13.5511 170.183 13.1569 170.986 12.9972C171.789 12.8375 172.621 12.9195 173.377 13.2327C174.133 13.546 174.78 14.0764 175.234 14.757C175.689 15.4376 175.932 16.2378 175.932 17.0563C175.932 17.5998 175.825 18.138 175.616 18.6401C175.408 19.1422 175.103 19.5983 174.719 19.9825C174.334 20.3667 173.878 20.6713 173.375 20.8791C172.873 21.0868 172.335 21.1936 171.791 21.1932L171.793 21.1949ZM63.4141 7.82012H58.0332V24.424H54.257V7.82012H48.876V4.43907H63.4125L63.4141 7.82012ZM140.304 9.68529H144.285L139.199 24.424H134.641L129.582 9.68529H133.562L136.934 20.3878L140.304 9.68529ZM187.893 9.68529H189.669V13.2002H187.591C185.99 13.2002 184.963 13.9856 184.963 15.5867V24.424H181.164V9.68529H184.963V12.1618C185.295 10.4101 186.504 9.68529 187.893 9.68529Z" fill="black"/>
</svg>
