<svg xmlns="http://www.w3.org/2000/svg" viewBox="0 0 83 30"><path d="M5.112 21.012c.348.916.831 1.7 1.448 2.35a6.234 6.234 0 0 0 2.193 1.496 7.214 7.214 0 0 0 2.756.518c.965 0 1.87-.18 2.716-.539a6.683 6.683 0 0 0 2.212-1.514 6.857 6.857 0 0 0 1.469-2.332c.349-.903.523-1.912.523-3.029V.745h4.224v27.899H18.47v-2.59a9.702 9.702 0 0 1-3.32 2.27c-1.273.532-2.648.798-4.123.798-1.502 0-2.903-.26-4.204-.777a9.851 9.851 0 0 1-3.38-2.212c-.952-.957-1.703-2.106-2.253-3.448-.55-1.341-.825-2.836-.825-4.483V.745H4.59v17.217c0 1.117.174 2.133.523 3.05zM29.935.745v10.163a10.765 10.765 0 0 1 3.259-2.212c1.234-.545 2.575-.817 4.023-.817 1.502 0 2.91.28 4.225.837a10.8 10.8 0 0 1 3.42 2.272c.965.956 1.73 2.086 2.293 3.388.563 1.302.845 2.683.845 4.144 0 1.462-.282 2.837-.845 4.125a10.746 10.746 0 0 1-2.294 3.368 10.799 10.799 0 0 1-3.42 2.272c-1.314.558-2.722.837-4.224.837-1.448 0-2.796-.273-4.043-.817a10.693 10.693 0 0 1-3.28-2.212v2.55h-4.022V.746h4.063zm.463 20.525c.362.85.865 1.595 1.509 2.232a7.282 7.282 0 0 0 2.253 1.515 6.905 6.905 0 0 0 2.776.558c.965 0 1.877-.186 2.735-.558a7.04 7.04 0 0 0 2.233-1.515 7.387 7.387 0 0 0 1.51-2.232 6.73 6.73 0 0 0 .562-2.75 6.87 6.87 0 0 0-.563-2.77 7.321 7.321 0 0 0-1.509-2.251 6.778 6.778 0 0 0-2.233-1.495 7.025 7.025 0 0 0-2.735-.538c-.966 0-1.878.18-2.736.538a7.012 7.012 0 0 0-3.782 3.747 6.87 6.87 0 0 0-.563 2.77c0 .983.18 1.9.543 2.75zM50.293 14.416a10.833 10.833 0 0 1 2.213-3.368 10.283 10.283 0 0 1 3.339-2.292c1.287-.558 2.682-.837 4.184-.837 1.475 0 2.843.266 4.104.797a9.738 9.738 0 0 1 3.259 2.212 10.1 10.1 0 0 1 2.132 3.348c.51 1.289.764 2.69.764 4.205v1.315H53.593c.134.824.402 1.588.805 2.292a6.924 6.924 0 0 0 1.508 1.833 6.91 6.91 0 0 0 2.052 1.216 6.759 6.759 0 0 0 2.434.438c2.441 0 4.413-.996 5.915-2.99l2.937 2.153a10.9 10.9 0 0 1-3.782 3.189c-1.502.77-3.192 1.155-5.07 1.155-1.529 0-2.957-.265-4.284-.797a10.445 10.445 0 0 1-3.46-2.232 10.585 10.585 0 0 1-2.314-3.367c-.563-1.29-.845-2.69-.845-4.205 0-1.435.268-2.79.805-4.065zm5.653-1.575c-1.14.944-1.898 2.199-2.274 3.767h12.513c-.349-1.568-1.093-2.824-2.233-3.767-1.14-.943-2.474-1.414-4.003-1.414-1.53 0-2.863.471-4.003 1.414zM77.892 13.3c-.858.93-1.287 2.191-1.287 3.786v11.558H72.54V8.317h4.023v2.511a5.693 5.693 0 0 1 1.992-1.953c.818-.478 1.79-.717 2.917-.717h1.408v3.746h-1.69c-1.341 0-2.44.465-3.299 1.395z" /></svg>