<svg viewBox="0 0 463 72" fill="none" xmlns="http://www.w3.org/2000/svg"><path d="M26.536 22.732V47.77c3.383-1.827 5.752-5.008 6.902-8.595l.27.136c-.744 8.933-6.834 17.865-16.308 17.865-9.542 0-16.58-7.105-16.58-18.475 0-8.526 5.549-13.873 12.655-18.678a12.412 12.412 0 00-3.181-.406c-4.873 0-7.715 3.316-7.715 6.7h-.406c-.068-.474-.068-.947-.068-1.421 0-6.023 3.18-13.332 10.896-13.332 4.94 0 8.73 4.534 14.482 4.534 2.3 0 5.143-1.083 6.293-3.587h.203c-.067 4.4-1.42 8.934-7.443 10.22zM30.19 48.38c-3.384 3.586-7.038 6.632-11.775 6.632-8.797 0-15.564-6.903-15.564-16.92 0-5.886 2.436-9.066 5.143-12.79h-.271C6.03 26.996 1.565 31.259 1.565 38.5c0 11.099 6.97 17.934 16.106 17.934 6.36 0 10.692-4.398 12.655-7.985l-.136-.068zm2.706-32.821c-1.15 2.165-3.586 4.939-8.526 4.939-4.94 0-9.474-3.384-13.467-3.384-3.655 0-6.158 2.437-7.106 4.264l.068.136c1.286-1.286 3.248-2.572 6.429-2.572 5.278 0 8.662 3.249 14.008 3.249 5.685 0 8.256-3.723 8.73-6.564l-.136-.068zm-18.813 4.669C10.632 23.815 7.45 27.74 7.45 35.387c0 4.195 1.42 8.526 4.602 11.233l1.962-1.016V27.469l-1.827.947-.338-.677 9.474-5.144c-2.571-.54-4.872-1.69-7.241-2.367zm11.708 2.639c-.474.067-.947.067-1.49.067-.946 0-1.826-.067-2.706-.271v19.76L12.73 47.23c1.827 1.353 4.06 2.165 6.902 2.165 2.3 0 4.33-.474 6.158-1.286V22.867zm-9.745 3.452l-1.286.744V45.2l1.286-.677V26.319zm38.912 2.57v23.416c0 6.496-5.752 10.896-12.181 12.18l-.135-.27c3.18-1.557 5.008-4.737 5.008-8.121V31.867l-3.654-3.315-1.421 1.556v18.88l2.03 1.828v.136l-5.481 5.955-6.293-5.752v-.271l2.436-2.572V18.4l7.173-7.646.135.067v18.136l5.888-6.361 6.158 5.55 1.15-1.22.542.476-1.355 1.487zM36.01 51.02v-.135l1.42-1.422V17.25l-1.42 1.49v30.046l-2.166 2.166v.135l5.278 4.737.947-1.083-4.06-3.722zm13.805-20.235l-4.4-3.79-.946 1.016 3.925 3.52v24.362c0 1.624-.338 3.315-.947 4.263l.068.068c1.692-1.22 2.3-3.046 2.3-5.414V30.784zm15.903 11.708v3.45l6.564 5.144 3.79-4.06.542.54-8.797 9.407-8.933-7.173-1.353 1.42-.542-.54 1.557-1.624V31.935l12.79-9.34 6.7 10.829-12.318 9.068zm-5.008 5.956v-17.19l-1.421 1.016v16.85l8.392 6.836 1.083-1.15-8.054-6.362zm5.144-20.844l-.136.068v13.873l6.023-4.4-5.887-9.541zm1.759-1.353l-1.218.879 5.956 9.542 1.218-.88-5.956-9.541zm54.534 30.655l-9.407-8.121-7.173 8.12-9.745-8.391V35.25h-1.895c-1.692 0-2.571 1.083-2.978 2.368h-.203a10.76 10.76 0 01-.338-2.571c0-1.76.474-6.361 5.414-6.361v-11.64c0-2.233-2.64-3.113-2.64-6.091 0-3.856 3.655-7.646 10.355-10.016l.271.203c-2.436 1.422-3.722 2.775-3.722 5.685 0 4.467 4.331 3.316 4.331 10.354v2.707l7.918-8.324 8.324 8.188 7.85-8.188 7.579 7.444v25.039l-13.941 12.858zm-24.16-9.474V33.154h-3.79c-1.962 0-2.841 1.285-2.977 2.436l.067.068c.677-.744 1.354-1.15 2.91-1.15h2.368v13.67l8.933 7.715 1.015-1.22-8.525-7.241zm0-31.062c0-2.774-2.435-3.722-2.435-5.481 0-2.437.947-4.466 2.436-6.361l-.135-.067c-2.03 1.557-3.925 4.06-3.925 6.496 0 2.437 2.639 3.587 2.639 5.753v11.978h1.42V16.37zm14.28 6.768l-5.143-5.008-2.707 2.774V44.86l6.158 5.21 1.692-1.894V23.138zm2.165 24.159V22.19l-5.752-5.685-1.083 1.083 5.414 5.21V48.04l9.136 7.918 1.083-1.016-8.798-7.646zm13.129-25.04l-4.263-4.06-2.436 2.504v24.092l6.632 5.819.067-.067V22.258zm2.165-.946l-4.94-4.805-1.015 1.083 4.534 4.33v28.288l1.421-1.354V21.31zm28.755 35.595l-6.429-5.82-5.752 5.82-7.038-6.226-.948 1.015-.541-.541 1.218-1.286V31.733l12.723-9.204 7.309 5.685 1.286-1.354.542.542-1.489 1.556v18.746l3.586 3.315 1.151-1.218.541.474-6.159 6.63zm-17.324-7.511V31.123l-1.421 1.015v17.934l6.497 5.82 1.083-1.083-6.159-5.414zm10.895-17.798l-5.549-4.331-.203.136v19.692l4.602 3.992 1.15-1.15v-18.34zm2.166 18.407V30.582l-5.752-4.67-1.353.947 5.684 4.467V50.68l5.685 5.143 1.015-1.083-5.279-4.736zm23.956-15.16h6.97v14.483l-10.76 7.579c-1.421-1.624-3.452-2.774-5.955-2.774-2.03 0-3.655.677-5.82 2.504l-.338-.136 9.204-13.4h-5.685V30.515l11.302-7.85c1.353 1.083 2.368 1.69 4.128 1.69 1.354 0 3.316-.27 4.805-1.487l.271.135-8.122 11.843zm-7.579 17.325c-1.963 0-3.519.677-4.873 1.624v.136c1.083-.474 2.166-.61 3.181-.61 1.556 0 3.993.746 5.617 2.64l1.557-1.15c-1.287-1.49-2.843-2.64-5.482-2.64zm7.24-11.37h-3.79l-7.918 11.439.068.135c1.962-1.421 3.857-2.368 6.158-2.368 2.03 0 4.128.947 5.414 2.57l.068-.066v-11.71zm-9.88 0V29.907l-1.421 1.015V42.29h5.481l1.083-1.49h-5.143zm14.144-13.263c-1.421 1.016-2.233 1.557-4.602 1.557-1.354 0-2.978-.61-4.263-1.963l-.135.068v9.88h2.571l6.497-9.475-.068-.067zm-3.248-.61c-1.218 0-2.774-.607-3.79-1.961l-1.692 1.15c1.286 1.557 2.504 2.233 4.398 2.233 1.218 0 2.978-.34 4.805-1.896l.067-.202c-1.149.475-2.57.677-3.788.677zm1.15 11.642h-4.399l-1.015 1.42h3.993v13.129l1.421-1.015V38.568zm28.49-9.678v23.415c0 6.496-5.752 10.896-12.181 12.18l-.135-.27c3.181-1.557 5.008-4.737 5.008-8.121V31.867l-3.654-3.315-1.421 1.556v18.88l2.03 1.828v.136l-5.481 5.955-6.293-5.752v-.271l2.436-2.572V18.4l7.173-7.646.135.067v18.136l5.888-6.361 6.158 5.55 1.15-1.22.542.476-1.355 1.487zm-18.948 22.129v-.135l1.421-1.422V17.25l-1.421 1.489v30.046l-2.166 2.166v.135l5.278 4.737.947-1.083-4.059-3.721zm13.805-20.235l-4.399-3.79-.947 1.016 3.925 3.52v24.362c0 1.624-.338 3.315-.947 4.263l.068.068c1.692-1.22 2.301-3.046 2.301-5.414V30.784h-.001zm17.46 26.122l-5.82-5.346-1.354 1.42-.542-.541 1.557-1.691V31.19l-2.842-2.707-1.083 1.219-.542-.542 6.09-6.632 5.414 4.873 1.354-1.49.609.475-1.692 1.827v19.76l3.249 3.046 1.489-1.557.541.542-6.428 6.9zm-3.993-6.631V30.108l-3.519-3.248-.947 1.083 3.045 2.91v20.099l5.414 4.872 1.015-1.083-5.008-4.466zm2.03-28.287l-5.549-5.075 5.076-5.414 5.549 5.075-5.076 5.414zm-3.451-6.16l-1.015 1.016 4.398 4.128 1.015-1.15-4.398-3.993zm34.029 41.078l-5.888-5.346V31.8l-3.587-3.248-1.895 2.03v18.27l2.098 1.963v.27l-5.549 5.82-6.294-5.751v-.203l2.437-2.571V31.326l-3.181-2.91-1.286 1.42-.541-.54 6.158-6.7 6.158 5.482v1.353l6.429-6.835 6.022 5.414 1.354-1.421.609.54-1.624 1.693v19.354l3.045 2.842 1.489-1.624.541.54-6.495 6.972zm-17.866-5.887v-.135c0 .135 1.354-1.354 1.354-1.354V30.31l-3.858-3.52-.948 1.016 3.384 3.113v17.865l-2.098 2.166v.135l5.211 4.737 1.082-1.15-4.127-3.653zm14.143-.541V30.65l-4.195-3.79-1.083 1.15 3.857 3.45v19.694l5.075 4.737 1.083-1.151-4.737-4.262zm22.806 18.609c-2.232-2.436-3.789-3.451-5.887-3.451-2.233 0-4.805.88-7.444 2.3l-.203-.201 9.339-10.828-6.632-5.278-1.286 1.354-.541-.474 1.488-1.624V31.733l12.858-9.204 7.173 5.685 1.219-1.354.541.542-1.421 1.556v23.145c0 3.519 1.962 3.384 1.962 6.022 0 3.045-4.399 5.887-11.166 10.962zm-9-18.745V31.19l-1.421 1.016v18.745l6.699 5.414 1.016-1.22-6.294-4.804zm4.737 13.535c-2.233 0-4.264.677-6.158 1.962v.136c1.218-.474 2.571-1.083 4.872-1.083 2.098 0 3.857 1.15 5.617 3.18l1.354-1.082c-1.693-1.962-3.723-3.113-5.685-3.113zm8.256-6.497c-1.691-1.083-2.098-2.233-2.098-5.143v-1.22l-11.234 12.994.068.067c2.165-1.285 4.128-2.232 7.309-2.232 2.707 0 4.534 1.082 6.632 2.842 1.286-1.083 2.165-2.165 2.165-3.857 0-1.353-1.151-2.368-2.842-3.451zm-2.098-25.783l-5.617-4.398-.136.135v20.775l4.332 3.384 1.421-1.624V31.597zm4.128 24.836c-1.76-1.354-1.963-2.504-1.963-5.414V30.447l-5.685-4.602-1.285.88 5.549 4.398v20.843c0 2.91.136 3.723 1.963 4.94 1.624 1.083 2.909 2.233 2.909 3.79 0 .405-.067 1.082-.067 1.082l.067.068c.339-.34.745-.88.745-1.76.001-1.488-.744-2.503-2.233-3.653zm16.242.473l-6.226-4.872-1.286 1.42-.541-.541 1.488-1.624V27.604h-3.925l-.136-.135 2.369-3.52h1.691v-4.533l7.174-7.647.135.136V23.95h5.414l.136.136-2.369 3.519h-3.181V48.11l3.723 2.843 1.421-1.557.541.54-6.428 6.97zm-4.399-38.641l-1.421 1.557v4.128h1.421v-5.685zm0 32.348v-23.01h-1.421v23.822l5.752 4.467 1.015-1.083-5.346-4.196zm32.956-21.046v18.948l-11.437 8.459-8.595-6.496-1.015 1.15-.541-.542 1.218-1.353V31.19l11.979-8.595 7.985 6.227 1.285-1.354.542.54-1.421 1.558zm-18.203 19.49V30.582l-1.422 1.015V49.8l8.121 6.226 1.286-.947-7.985-6.023zM312.02 31.8l-5.685-4.467-.067.068v20.166l5.752 4.33V31.8zm2.166-1.218l-6.294-4.873-1.285.947 6.158 4.737V52.44l1.421-1.082V30.582zm30.994 26.324l-5.888-5.346V31.8l-3.587-3.248-1.895 2.03v18.27l2.098 1.963v.27l-5.549 5.82-6.294-5.751v-.203l2.437-2.571V31.326l-3.181-2.91-1.286 1.42-.541-.54 6.158-6.7 6.158 5.482v1.353l6.429-6.835 6.023 5.414 1.353-1.421.609.54-1.624 1.693v19.354l3.045 2.842 1.489-1.624.541.54-6.495 6.972zm-17.867-5.887v-.135c0 .135 1.354-1.354 1.354-1.354V30.31l-3.857-3.52-.947 1.016 3.384 3.113v17.865l-2.098 2.166v.135l5.211 4.737 1.083-1.15-4.13-3.653zm14.144-.541V30.65l-4.195-3.79-1.083 1.15 3.857 3.45v19.694l5.075 4.737 1.083-1.151-4.737-4.262zm45.529 6.428c-1.895-2.03-2.571-2.707-4.805-3.316v13.264l-.136.067-2.707-2.437-7.85 7.24-.136-.066V53.455c-2.368.54-4.872 1.76-7.309 4.195l-.135-.067c.474-5.211 3.045-9.068 7.443-10.557V33.83h-1.421c-1.962 0-3.045 1.015-3.992 2.842h-.203c-.203-.608-.339-1.557-.339-3.112 0-2.843 2.098-5.82 5.55-5.82h.405v-7.31l-2.774-2.503-1.354 1.354-.474-.474 6.835-7.241 6.361 5.82v6.158l1.489-1.624v-7.783h.744v7.106l9-9.678 7.647 6.97v29.439l-11.839 8.932zm-15.632-5.955c-2.774.54-4.736 2.233-6.022 4.466l.067.136c1.896-1.624 3.654-2.368 5.955-2.91V50.95zm2.166-19.421h-3.722c-2.572 0-3.587 1.624-3.654 3.519l.067.067c.812-1.354 1.624-1.827 3.248-2.03h2.64v36.882l1.421-1.354V31.53zm0-12.182l-3.384-3.112-1.083 1.15 3.046 2.706v7.647h1.421v-8.391zm7.918 3.857l-1.489 1.557v39.183l1.489 1.354V23.205zm8.865-1.556l-3.993-3.654-4.128 4.467v23.82c3.519.339 5.955 1.354 8.053 3.654l.068-.067v-28.22zm-8.121 29.302v1.76c2.301.54 3.248 1.218 4.872 3.112l1.557-1.218c-1.625-2.03-3.249-3.247-6.429-3.654zm10.286-30.384l-4.602-4.264-1.083 1.15 4.264 3.925v31.468l1.421-1.083V20.567zm29.979 9v18.948l-11.438 8.459-8.594-6.496-1.016 1.15-.541-.542 1.218-1.353V31.19l11.979-8.595 7.985 6.227 1.285-1.354.542.54-1.42 1.558zm-18.204 19.49V30.582l-1.422 1.015V49.8l8.121 6.226 1.286-.947-7.985-6.023zM415.138 31.8l-5.684-4.467-.068.068v20.166l5.752 4.33V31.8zm2.166-1.218l-6.294-4.873-1.285.947 6.158 4.737V52.44l1.421-1.082V30.582zm20.842 4.263h6.971v14.482l-10.76 7.579c-1.421-1.624-3.451-2.774-5.955-2.774-2.03 0-3.654.677-5.82 2.504l-.338-.136 9.203-13.4h-5.685V30.515l11.302-7.85c1.354 1.083 2.368 1.69 4.128 1.69 1.354 0 3.315-.27 4.805-1.487l.271.135-8.122 11.843zm-7.579 17.324c-1.962 0-3.519.677-4.872 1.624v.136c1.083-.474 2.165-.61 3.181-.61 1.557 0 3.992.746 5.616 2.64l1.557-1.15c-1.285-1.49-2.842-2.64-5.482-2.64zm7.242-11.37h-3.79l-7.917 11.439.067.135c1.962-1.421 3.857-2.368 6.158-2.368 2.03 0 4.128.947 5.414 2.57l.067-.066v-11.71h.001zm-9.88 0V29.907l-1.422 1.015V42.29h5.481l1.083-1.49h-5.142zm14.143-13.263c-1.422 1.016-2.233 1.557-4.603 1.557-1.354 0-2.978-.61-4.263-1.963l-.136.068v9.88h2.571l6.497-9.475-.066-.067zm-3.249-.61c-1.218 0-2.774-.607-3.789-1.961l-1.692 1.15c1.286 1.557 2.504 2.233 4.399 2.233 1.218 0 2.978-.34 4.805-1.896l.067-.202c-1.15.475-2.571.677-3.79.677zm1.151 11.642h-4.398l-1.015 1.42h3.992v13.129l1.421-1.015V38.568zm16.377 18.338l-6.226-4.872-1.286 1.42-.541-.541 1.488-1.624V27.604h-3.925l-.135-.135 2.368-3.52h1.691v-4.533l7.174-7.647.136.136V23.95h5.413l.136.136-2.369 3.519h-3.18V48.11l3.722 2.843 1.421-1.557.541.54-6.428 6.97zm-4.399-38.641l-1.421 1.557v4.128h1.421v-5.685zm0 32.348v-23.01h-1.421v23.822l5.752 4.467 1.015-1.083-5.346-4.196z" fill="#231F20"/></svg>
